<?xml version="1.0" encoding="utf-8"?>
<!-- Generator: Adobe Illustrator 23.0.0, SVG Export Plug-In . SVG Version: 6.00 Build 0)  -->
<svg version="1.1" xmlns="http://www.w3.org/2000/svg" xmlns:xlink="http://www.w3.org/1999/xlink" x="0px" y="0px"
	 viewBox="0 0 545.4 551.5" style="enable-background:new 0 0 545.4 551.5;" xml:space="preserve">
<style type="text/css">
	.st0{fill:#FFFFFF;}
	.st1{fill:#B92025;}
	.st2{fill:#040404;}
</style>
<g id="Layer_1">
	<g>
		<path class="st0" d="M311.2,45.3v64.9v64.5l-0.1,185.2c0,0,0,0,0.1,0c50.6-3.8,78.9-15.3,93.3-29.6c13.9-13.9,21.9-31.1,21.9-63
			c0-31.9-8.4-48.3-22.3-62.2c-14.3-14.3-42.4-26.3-92.8-30.4v-64.5c90.9,4.9,135.6,27.4,160.1,51.9c25.6,25.6,39.5,57.2,39.5,105.1
			c0,47.5-13.9,79.4-39.5,105.1c-24.5,24.5-70.6,47-160.2,51.9v0c-0.5,58.1-56.4,88.5-92.6,91.3c-10.6,0.8-19.1,1.3-26.1,1.3
			c-17.1,0-26.3-2.6-40-8.8v-61.4c0,0,14.8,3.9,31.7,3.9c19.2,0,41.1-5,47.5-26.4c-87.7-5.4-133.4-28-157.6-52.2
			c-25.6-25.6-39.5-57.2-39.5-104.7c0-47.5,13.9-79.4,39.5-105.1c24.7-24.7,72-46.8,159.6-51.9c0,0,0,0,0,0c0-38.6,0-65,0-65H311.2
			 M232.3,359.5c0.6-60.1,1.3-146,1.3-184.8c-50.2,4-78.8,15.6-92.7,29.5c-13.9,13.9-21.9,31.1-21.9,63c0,31.9,9.2,48.8,22.3,61.8
			C154.8,342.5,183,355,232.3,359.5 M311.2,20.3h-77.6c-13.8,0-25,11.2-25,25v41.9c-70,7-121.1,26.2-152.2,57.3
			c-32,32-46.8,71-46.8,122.8c0,51.5,14.9,90.4,46.8,122.3c16.1,16.1,37.7,29.2,64,38.9c3.7,1.4,7.5,2.7,11.4,3.9
			c-2.8,4.1-4.4,9.1-4.4,14.2v61.4c0,9.8,5.7,18.7,14.6,22.8c15.8,7.2,28.4,11.1,50.3,11.1c7.4,0,16-0.4,28-1.3
			c25.2-1.9,52.7-13.3,73.6-30.5c12.5-10.2,22.4-22.2,29.6-35.6c4.5-8.5,7.8-17.4,9.9-26.7c34.9-3.2,65.3-9.4,90.6-18.6
			c26.7-9.6,48.6-22.8,64.9-39.1c32-31.9,46.8-71,46.8-122.8c0-51.8-14.9-90.8-46.8-122.8c-31.9-31.9-82-50.8-152.8-57.5V45.3
			C336.2,31.5,325,20.3,311.2,20.3L311.2,20.3z M207.6,330.9c-32.8-6.2-45.1-16.1-48.5-19.6c-7.2-7.2-15-17.2-15-44.1
			c0-28.5,7.2-38,14.5-45.4c4.3-4.3,16.9-13.4,50-19C208.4,237.9,208,286.7,207.6,330.9L207.6,330.9z M336.2,331.8l0-128.9
			c31.3,5.4,44.7,14.3,50.2,19.8c7.9,7.9,15,17.2,15,44.5c0,28.5-7.2,38-14.5,45.4C381.4,317.9,368.1,326.6,336.2,331.8L336.2,331.8
			z"/>
	</g>
</g>
<g id="圖層_2">
	<g>
		<g>
			<g>
				<path id="XMLID_13_" class="st1" d="M311.2,174.6v-64.5V45.3h-77.6c0,0,0,26.4,0,65c0,19,0,41,0,64.4c0,62.8-2,249.4-2,249.4
					c-12,40.3-79.2,22.5-79.2,22.5v61.4c19.3,8.8,29.7,10.4,66.1,7.6c36.2-2.8,92.1-33.2,92.6-91.3L311.2,174.6z"/>
			</g>
			<g>
				<path id="XMLID_3_" class="st2" d="M471.3,162.1c-24.5-24.5-69.1-47-160.1-51.9v64.5c50.4,4,78.5,16,92.8,30.4
					c13.9,13.9,22.3,30.3,22.3,62.2s-8,49.2-21.9,63c-14.3,14.3-42.7,25.8-93.2,29.6c-11.7,0.9-24.1,1.5-38.3,1.5
					c-14.5,0-27.3-0.7-39.3-1.8c-50.2-4.4-78.7-17-92.3-30.6c-13-13-22.3-29.8-22.3-61.8c0-31.9,8-49.2,21.9-63
					c13.9-13.9,42.5-25.5,92.7-29.5c0-23.4,0-45.3,0-64.4c-87.5,5.1-134.9,27.2-159.6,51.9c-25.6,25.6-39.5,57.6-39.5,105.1
					s13.9,79,39.5,104.7c24.2,24.2,69.8,46.8,157.6,52.2c12.8,0.8,26.5,1.2,41.3,1.2c13.6,0,26.3-0.4,38.2-1
					c89.6-5,135.7-27.4,160.2-51.9c25.6-25.6,39.5-57.6,39.5-105.1C510.8,219.3,496.9,187.8,471.3,162.1z"/>
			</g>
		</g>
	</g>
</g>
</svg>
